PathFileType	4	(X/Y/Z)	C:/Users/beibeiliu/ov580/test_trc/User2\sequence.38_training_dense_left.trc
DataRate	CameraRate	NumFrames	NumMarkers	Units	OrigDataRate	OrigDataStartFrame	OrigNumFrames
120	120	7	19	mm	120	53	105
Frame#	Time	ThumbCMC			ThumbMCP			ThumbIP			ThumbTip			IndexMCP			IndexPIP			IndexTip			MiddleMCP			MiddlePIP			MiddleTip			RingMCP			RingPIP			RingTip			PinkyMCP			PinkyPIP			PinkyTip			BackHand1			BackHand2			BackHand3	
		X0	Y0	Z0	X1	Y1	Z1	X2	Y2	Z2	X3	Y3	Z3	X4	Y4	Z4	X5	Y5	Z5	X6	Y6	Z6	X7	Y7	Z7	X8	Y8	Z8	X9	Y9	Z9	X10	Y10	Z10	X11	Y11	Z11	X12	Y12	Z12	X13	Y13	Z13	X14	Y14	Z14	X15	Y15	Z15	X16	Y16	Z16	X17	Y17	Z17	X18	Y18	Z18	
52	0.433333	-213.908	-19.5253	-47.8669	-198.601	10.7248	-62.4761	-171.754	31.7211	-88.2822	-146.421	34.093	-96.1954	-186.894	-41.7737	-121.396	-176.183	-30.3438	-148.609	-159.307	-8.05411	-165.861	-158.741	-54.4768	-122.233	-143.698	-34.5158	-145.119	-133.112	4.27186	-138.431	-135.593	-48.0738	-102.191	-121.861	-22.2638	-119.77	-118.992	11.7098	-109.935	-120.954	-50.5283	-79.1801	-102.523	-35.3278	-99.7105	-86.9045	-18.6219	-115.557	-167.044	-67.9959	-56.4844	-179.498	-78.535	-23.2562	-205.093	-62.6866	-57.2919	
53	0.441667	-216.463	-17.0049	-47.184	-197.48	13.8741	-67.4944	-173.893	35.1539	-86.7892	-149.678	37.9486	-94.1158	-188.195	-41.8017	-121.963	-177.773	-29.4814	-150.758	-164.527	-10.9432	-167.177	-163.529	-53.7256	-124.288	-142.372	-34.5408	-148.243	-128.137	0.0253317	-144.702	-139.895	-50.0045	-108.039	-120.704	-30.7953	-122.753	-115.441	1.52484	-124.129	-123.98	-53.639	-81.3857	-103.999	-41.0213	-101.219	-88.4024	-27.2748	-116.299	-166.848	-72.2373	-52.8084	-180.844	-77.6226	-26.46	-206.195	-61.8647	-58.3813	
54	0.45	-213.981	-15.9222	-51.8	-197.721	13.6731	-64.233	-175.042	36.8701	-84.2203	-150.555	41.2904	-92.5767	-187.233	-40.9386	-123.624	-176.432	-27.9414	-153.943	-163.696	-10.937	-168.751	-159.812	-55.5154	-121.551	-142.546	-34.7316	-149.381	-126.647	-1.51896	-151.987	-136.144	-53.1095	-104.922	-116.32	-33.6022	-124.947	-110.722	-3.7658	-130.532	-120.711	-54.9024	-82.7111	-101.556	-44.2944	-100.228	-87.0544	-28.2805	-116.114	-166.009	-71.7746	-55.6114	-178.819	-75.9513	-24.6823	-205.015	-59.7512	-56.7496	
55	0.458333	-212.063	-16.3394	-49.6622	-196.024	16.309	-65.8325	-173.304	35.419	-81.7936	-149.188	45.9675	-94.9193	-186.238	-40.6779	-121.85	-175.486	-27.6917	-150.898	-161.208	-9.25674	-169.161	-161.807	-53.3835	-122.434	-143.144	-34.6397	-150.525	-123.967	-5.74244	-152.426	-139.803	-52.8074	-105.417	-116.089	-32.6022	-126.883	-108.422	-4.41923	-131.827	-120.449	-55.8648	-80.8038	-103.559	-45.3965	-99.3947	-82.4102	-27.5266	-115.836	-168.506	-68.8171	-56.0599	-181.858	-75.0667	-28.9242	-205.613	-61.9558	-54.6966	
56	0.466667	-213.038	-15.4219	-51.3567	-196.748	16.6022	-65.8682	-173.472	37.3636	-83.9281	-148.926	43.9821	-93.454	-187.365	-39.1777	-124.061	-177.352	-26.3743	-150.172	-163.324	-8.308	-167.184	-160.148	-51.9656	-123.477	-139.2	-30.5442	-146.821	-122.968	3.21786	-143.664	-138.421	-50.2356	-104.128	-116.561	-27.2976	-123.24	-112.792	5.66913	-124.482	-124.677	-53.857	-78.9601	-104.483	-44.3482	-97.8829	-84.4628	-26.9777	-114.135	-163.713	-70.5267	-58.0889	-180.466	-77.56	-25.1657	-204.776	-58.7244	-57.993	
57	0.475	-213.81	-17.0194	-46.058	-196.605	12.4689	-63.1329	-168.678	29.776	-82.9447	-145.379	33.5661	-91.3549	-186.546	-37.4996	-124.661	-173.496	-26.7865	-148.996	-159.518	-5.50487	-165.702	-158.265	-50.8871	-121.125	-139.433	-29.7447	-141.454	-128.005	10.0956	-129.327	-136.059	-45.2587	-106.967	-120.136	-20.991	-120.083	-118.907	9.60417	-111.893	-123.301	-53.165	-78.4379	-100.821	-41.8657	-98.6733	-86.6499	-26.9684	-113.687	-164.833	-68.1586	-53.8358	-183.931	-75.2946	-27.4684	-204.765	-60.6207	-54.3547	
58	0.483333	-217.079	-15.2057	-47.0297	-195.855	11.8176	-64.1165	-172.204	29.4985	-82.5073	-143.684	29.7693	-93.5795	-187.199	-39.5705	-121.358	-174.912	-28.7008	-147.692	-156.902	-5.00063	-166.339	-158.697	-49.9956	-118.232	-138.182	-21.7862	-138.918	-132.725	12.5997	-122.043	-136.983	-46.3665	-103.328	-119.823	-18.5511	-116.171	-122.153	11.1179	-106.093	-123.387	-54.1612	-79.0106	-105.976	-42.8442	-99.5404	-89.4947	-24.2579	-116.496	-168.345	-67.5494	-57.8101	-182.326	-75.4396	-25.0014	-203.989	-61.3494	-55.4759	
